<svg width="193" height="20" viewBox="0 0 193 20" fill="none" xmlns="http://www.w3.org/2000/svg">
<path d="M0 5C0 2.23858 2.23858 0 5 0H24V20H5C2.23858 20 0 17.7614 0 15V5Z" fill="#2C2C32"/>
<mask id="mask0" mask-type="alpha" maskUnits="userSpaceOnUse" x="6" y="4" width="12" height="12">
<path fill-rule="evenodd" clip-rule="evenodd" d="M14.5094 15.9181C14.6984 15.9917 14.9139 15.987 15.1047 15.8952L17.5753 14.7064C17.8349 14.5814 18 14.3187 18 14.0305V5.9696C18 5.68135 17.8349 5.41862 17.5753 5.29369L15.1047 4.10485C14.8543 3.98438 14.5614 4.01389 14.3416 4.17363C14.3102 4.19645 14.2803 4.22193 14.2523 4.25001L9.52261 8.56498L7.46246 7.00116C7.27068 6.85558 7.00244 6.86751 6.82432 7.02953L6.16356 7.63059C5.94569 7.82877 5.94544 8.17153 6.16302 8.37004L7.94965 10L6.16302 11.63C5.94544 11.8285 5.94569 12.1713 6.16356 12.3694L6.82432 12.9705C7.00244 13.1325 7.27068 13.1444 7.46246 12.9989L9.52261 11.435L14.2523 15.75C14.3271 15.8249 14.4149 15.8813 14.5094 15.9181ZM15.0018 7.27587L11.4131 10L15.0018 12.7241V7.27587Z" fill="white"/>
</mask>
<g mask="url(#mask0)">
<path d="M17.5753 5.29555L15.1028 4.10507C14.8166 3.96728 14.4746 4.0254 14.25 4.25001L6.1558 11.63C5.93809 11.8285 5.93834 12.1713 6.15634 12.3694L6.8175 12.9705C6.99572 13.1325 7.26413 13.1444 7.45603 12.9989L17.2033 5.60439C17.5303 5.35632 18 5.58955 18 6.00001V5.9713C18 5.68319 17.8349 5.42054 17.5753 5.29555Z" fill="#0065A9"/>
<g filter="url(#filter0_d)">
<path d="M17.5753 14.7045L15.1028 15.8949C14.8166 16.0327 14.4746 15.9746 14.25 15.75L6.1558 8.37002C5.93809 8.17152 5.93834 7.82876 6.15634 7.63058L6.8175 7.02952C6.99572 6.8675 7.26413 6.85557 7.45603 7.00115L17.2033 14.3956C17.5303 14.6437 18 14.4105 18 14V14.0287C18 14.3168 17.8349 14.5795 17.5753 14.7045Z" fill="#007ACC"/>
</g>
<g filter="url(#filter1_d)">
<path d="M15.1029 15.8952C14.8167 16.0328 14.4746 15.9746 14.25 15.75C14.5268 16.0268 15 15.8307 15 15.4393V4.56066C15 4.16925 14.5268 3.97323 14.25 4.24999C14.4746 4.02537 14.8167 3.96716 15.1029 4.10484L17.575 5.29368C17.8348 5.4186 18 5.68134 18 5.96958V14.0304C18 14.3187 17.8348 14.5814 17.575 14.7064L15.1029 15.8952Z" fill="#1F9CF0"/>
</g>
<g style="mix-blend-mode:overlay" opacity="0.25">
<path fill-rule="evenodd" clip-rule="evenodd" d="M14.5021 15.918C14.6911 15.9917 14.9066 15.9869 15.0974 15.8952L17.568 14.7064C17.8276 14.5814 17.9927 14.3187 17.9927 14.0304V5.96958C17.9927 5.68134 17.8276 5.4186 17.568 5.29368L15.0974 4.10484C14.847 3.98437 14.554 4.01388 14.3343 4.17362C14.3029 4.19644 14.273 4.22192 14.245 4.24999L9.51528 8.56496L7.45514 7.00114C7.26336 6.85557 6.99511 6.86749 6.817 7.02952L6.15624 7.63057C5.93837 7.82876 5.93812 8.17151 6.1557 8.37002L7.94233 9.99999L6.1557 11.63C5.93812 11.8285 5.93837 12.1712 6.15624 12.3694L6.817 12.9705C6.99511 13.1325 7.26336 13.1444 7.45514 12.9988L9.51528 11.435L14.245 15.75C14.3198 15.8249 14.4076 15.8812 14.5021 15.918ZM14.9945 7.27586L11.4058 9.99999L14.9945 12.7241V7.27586Z" fill="url(#paint0_linear)"/>
</g>
</g>
<path d="M24 0H187.141C189.902 0 192.141 2.23858 192.141 5V15C192.141 17.7614 189.902 20 187.141 20H24V0Z" fill="#007ACC"/>
<path d="M33.9492 4.82324C31.5234 4.82324 30 6.52832 30 9.25293C30 11.9717 31.4883 13.6885 33.9492 13.6885C36.3926 13.6885 37.8926 11.9658 37.8926 9.25293C37.8926 6.53418 36.3809 4.82324 33.9492 4.82324ZM33.9492 5.9834C35.5488 5.9834 36.5508 7.24902 36.5508 9.25293C36.5508 11.2393 35.5547 12.5283 33.9492 12.5283C32.3203 12.5283 31.3418 11.2393 31.3418 9.25293C31.3418 7.24902 32.3496 5.9834 33.9492 5.9834Z" fill="white"/>
<path d="M42.8379 7.00879C41.9707 7.00879 41.2207 7.44824 40.834 8.1748H40.7402V7.12012H39.5273V15.6045H40.7871V12.5225H40.8867C41.2207 13.1963 41.9414 13.5889 42.8496 13.5889C44.4609 13.5889 45.4863 12.3115 45.4863 10.3018C45.4863 8.28027 44.4609 7.00879 42.8379 7.00879ZM42.4805 12.5107C41.4258 12.5107 40.7637 11.6611 40.7637 10.3018C40.7637 8.93652 41.4258 8.08691 42.4863 8.08691C43.5527 8.08691 44.1914 8.91895 44.1914 10.3018C44.1914 11.6846 43.5527 12.5107 42.4805 12.5107Z" fill="white"/>
<path d="M51.1875 11.7783C50.9531 12.2939 50.4316 12.5752 49.6699 12.5752C48.6621 12.5752 48.0117 11.8486 47.9707 10.6943V10.6357H52.4766V10.2021C52.4766 8.20996 51.4043 6.99707 49.6289 6.99707C47.8301 6.99707 46.6875 8.29199 46.6875 10.3135C46.6875 12.3467 47.8066 13.6064 49.6348 13.6064C51.0938 13.6064 52.125 12.9033 52.4004 11.7783H51.1875ZM49.623 8.02246C50.5547 8.02246 51.1641 8.69629 51.1934 9.72754H47.9707C48.041 8.70215 48.6914 8.02246 49.623 8.02246Z" fill="white"/>
<path d="M53.9883 13.4834H55.248V9.75098C55.248 8.72559 55.8398 8.09277 56.7715 8.09277C57.7031 8.09277 58.1484 8.6084 58.1484 9.66309V13.4834H59.4082V9.36426C59.4082 7.84668 58.623 6.99707 57.1992 6.99707C56.2383 6.99707 55.6055 7.4248 55.2949 8.12793H55.2012V7.12012H53.9883V13.4834Z" fill="white"/>
<path d="M65.1152 5.9834C65.5547 5.9834 65.9121 5.62598 65.9121 5.19238C65.9121 4.75293 65.5547 4.39551 65.1152 4.39551C64.6758 4.39551 64.3184 4.75293 64.3184 5.19238C64.3184 5.62598 64.6758 5.9834 65.1152 5.9834ZM64.4883 13.4834H65.7422V7.12012H64.4883V13.4834Z" fill="white"/>
<path d="M67.5938 13.4834H68.8535V9.75098C68.8535 8.72559 69.4453 8.09277 70.377 8.09277C71.3086 8.09277 71.7539 8.6084 71.7539 9.66309V13.4834H73.0137V9.36426C73.0137 7.84668 72.2285 6.99707 70.8047 6.99707C69.8438 6.99707 69.2109 7.4248 68.9004 8.12793H68.8066V7.12012H67.5938V13.4834Z" fill="white"/>
<path d="M82.0312 13.4834L85.0371 5.02832H83.6426L81.375 11.9131H81.2754L78.9961 5.02832H77.5664L80.5898 13.4834H82.0312Z" fill="white"/>
<path d="M87.0176 5.9834C87.457 5.9834 87.8145 5.62598 87.8145 5.19238C87.8145 4.75293 87.457 4.39551 87.0176 4.39551C86.5781 4.39551 86.2207 4.75293 86.2207 5.19238C86.2207 5.62598 86.5781 5.9834 87.0176 5.9834ZM86.3906 13.4834H87.6445V7.12012H86.3906V13.4834Z" fill="white"/>
<path d="M89.3496 8.90137C89.3496 9.84473 89.9121 10.3838 91.125 10.665L92.2383 10.9287C92.877 11.0811 93.1758 11.3389 93.1758 11.7373C93.1758 12.2588 92.6191 12.6221 91.834 12.6221C91.0723 12.6221 90.6035 12.3115 90.4453 11.8135H89.1855C89.2969 12.9209 90.2871 13.6064 91.8047 13.6064C93.3281 13.6064 94.4473 12.8037 94.4473 11.6201C94.4473 10.6943 93.8789 10.1729 92.666 9.8916L91.6055 9.64551C90.9141 9.48145 90.5918 9.23535 90.5918 8.84277C90.5918 8.32715 91.125 7.98145 91.8281 7.98145C92.543 7.98145 93 8.29199 93.1172 8.7666H94.3242C94.2012 7.66504 93.2637 6.99707 91.8281 6.99707C90.3867 6.99707 89.3496 7.79395 89.3496 8.90137Z" fill="white"/>
<path d="M101.344 7.12012H100.084V10.8525C100.084 11.8779 99.5273 12.499 98.5078 12.499C97.582 12.499 97.166 11.9951 97.166 10.9404V7.12012H95.9062V11.251C95.9062 12.7451 96.6914 13.6064 98.1035 13.6064C99.0703 13.6064 99.7207 13.1963 100.031 12.4756H100.131V13.4834H101.344V7.12012Z" fill="white"/>
<path d="M104.936 13.5889C105.773 13.5889 106.471 13.2256 106.852 12.5811H106.951V13.4834H108.164V9.12988C108.164 7.79395 107.262 6.99707 105.662 6.99707C104.215 6.99707 103.184 7.69434 103.055 8.7666H104.273C104.414 8.30371 104.9 8.04004 105.604 8.04004C106.465 8.04004 106.91 8.43262 106.91 9.12988V9.68652L105.182 9.79199C103.664 9.88574 102.809 10.5479 102.809 11.6904C102.809 12.8506 103.705 13.5889 104.936 13.5889ZM105.258 12.5752C104.572 12.5752 104.074 12.2295 104.074 11.6377C104.074 11.0576 104.473 10.7471 105.352 10.6885L106.91 10.583V11.1338C106.91 11.9541 106.207 12.5752 105.258 12.5752Z" fill="white"/>
<path d="M110.016 13.4834H111.275V4.62402H110.016V13.4834Z" fill="white"/>
<path d="M116.197 11.2275C116.291 12.7275 117.551 13.6885 119.426 13.6885C121.43 13.6885 122.684 12.6807 122.684 11.0811C122.684 9.81543 121.969 9.11816 120.234 8.70215L119.303 8.47363C118.201 8.2041 117.756 7.85254 117.756 7.2373C117.756 6.44629 118.447 5.93652 119.484 5.93652C120.469 5.93652 121.148 6.42871 121.271 7.23145H122.549C122.473 5.81934 121.219 4.82324 119.502 4.82324C117.656 4.82324 116.426 5.81934 116.426 7.30762C116.426 8.53809 117.123 9.26465 118.652 9.63379L119.742 9.89746C120.861 10.167 121.354 10.5771 121.354 11.2393C121.354 12.0127 120.58 12.5693 119.525 12.5693C118.395 12.5693 117.609 12.0479 117.498 11.2275H116.197Z" fill="white"/>
<path d="M124.711 5.51465V7.1377H123.697V8.14551H124.711V11.8076C124.711 13.0322 125.268 13.5244 126.668 13.5244C126.914 13.5244 127.148 13.4951 127.354 13.46V12.458C127.178 12.4756 127.066 12.4873 126.873 12.4873C126.246 12.4873 125.971 12.1885 125.971 11.5029V8.14551H127.354V7.1377H125.971V5.51465H124.711Z" fill="white"/>
<path d="M134.215 7.12012H132.955V10.8525C132.955 11.8779 132.398 12.499 131.379 12.499C130.453 12.499 130.037 11.9951 130.037 10.9404V7.12012H128.777V11.251C128.777 12.7451 129.562 13.6064 130.975 13.6064C131.941 13.6064 132.592 13.1963 132.902 12.4756H133.002V13.4834H134.215V7.12012Z" fill="white"/>
<path d="M138.375 13.5889C139.254 13.5889 139.998 13.1729 140.379 12.4756H140.479V13.4834H141.686V4.62402H140.426V8.12793H140.332C139.986 7.43066 139.248 7.00879 138.375 7.00879C136.764 7.00879 135.727 8.29199 135.727 10.2959C135.727 12.3115 136.752 13.5889 138.375 13.5889ZM138.732 8.08691C139.787 8.08691 140.449 8.94238 140.449 10.3018C140.449 11.6729 139.793 12.5107 138.732 12.5107C137.666 12.5107 137.027 11.6846 137.027 10.3018C137.027 8.9248 137.672 8.08691 138.732 8.08691Z" fill="white"/>
<path d="M144.229 5.9834C144.668 5.9834 145.025 5.62598 145.025 5.19238C145.025 4.75293 144.668 4.39551 144.229 4.39551C143.789 4.39551 143.432 4.75293 143.432 5.19238C143.432 5.62598 143.789 5.9834 144.229 5.9834ZM143.602 13.4834H144.855V7.12012H143.602V13.4834Z" fill="white"/>
<path d="M149.402 13.6064C151.266 13.6064 152.408 12.3584 152.408 10.3018C152.408 8.24512 151.26 6.99707 149.402 6.99707C147.539 6.99707 146.391 8.25098 146.391 10.3018C146.391 12.3584 147.533 13.6064 149.402 13.6064ZM149.402 12.5342C148.307 12.5342 147.691 11.7197 147.691 10.3018C147.691 8.88379 148.307 8.06348 149.402 8.06348C150.492 8.06348 151.113 8.88379 151.113 10.3018C151.113 11.7139 150.492 12.5342 149.402 12.5342Z" fill="white"/>
<path d="M160.822 13.6885C162.709 13.6885 164.098 12.6045 164.332 10.958H163.025C162.791 11.9189 161.941 12.5225 160.822 12.5225C159.299 12.5225 158.35 11.2686 158.35 9.25879C158.35 7.24902 159.299 5.98926 160.816 5.98926C161.93 5.98926 162.779 6.65723 163.025 7.70605H164.332C164.121 6.0127 162.68 4.82324 160.816 4.82324C158.467 4.82324 157.008 6.52246 157.008 9.25879C157.008 11.9893 158.473 13.6885 160.822 13.6885Z" fill="white"/>
<path d="M168.609 13.6064C170.473 13.6064 171.615 12.3584 171.615 10.3018C171.615 8.24512 170.467 6.99707 168.609 6.99707C166.746 6.99707 165.598 8.25098 165.598 10.3018C165.598 12.3584 166.74 13.6064 168.609 13.6064ZM168.609 12.5342C167.514 12.5342 166.898 11.7197 166.898 10.3018C166.898 8.88379 167.514 8.06348 168.609 8.06348C169.699 8.06348 170.32 8.88379 170.32 10.3018C170.32 11.7139 169.699 12.5342 168.609 12.5342Z" fill="white"/>
<path d="M175.465 13.5889C176.344 13.5889 177.088 13.1729 177.469 12.4756H177.568V13.4834H178.775V4.62402H177.516V8.12793H177.422C177.076 7.43066 176.338 7.00879 175.465 7.00879C173.854 7.00879 172.816 8.29199 172.816 10.2959C172.816 12.3115 173.842 13.5889 175.465 13.5889ZM175.822 8.08691C176.877 8.08691 177.539 8.94238 177.539 10.3018C177.539 11.6729 176.883 12.5107 175.822 12.5107C174.756 12.5107 174.117 11.6846 174.117 10.3018C174.117 8.9248 174.762 8.08691 175.822 8.08691Z" fill="white"/>
<path d="M184.852 11.7783C184.617 12.2939 184.096 12.5752 183.334 12.5752C182.326 12.5752 181.676 11.8486 181.635 10.6943V10.6357H186.141V10.2021C186.141 8.20996 185.068 6.99707 183.293 6.99707C181.494 6.99707 180.352 8.29199 180.352 10.3135C180.352 12.3467 181.471 13.6064 183.299 13.6064C184.758 13.6064 185.789 12.9033 186.064 11.7783H184.852ZM183.287 8.02246C184.219 8.02246 184.828 8.69629 184.857 9.72754H181.635C181.705 8.70215 182.355 8.02246 183.287 8.02246Z" fill="white"/>
<defs>
<filter id="filter0_d" x="-0.00732422" y="0.89949" width="24.0073" height="21.0695" filterUnits="userSpaceOnUse" color-interpolation-filters="sRGB">
<feFlood flood-opacity="0" result="BackgroundImageFix"/>
<feColorMatrix in="SourceAlpha" type="matrix" values="0 0 0 0 0 0 0 0 0 0 0 0 0 0 0 0 0 0 127 0"/>
<feOffset/>
<feGaussianBlur stdDeviation="3"/>
<feColorMatrix type="matrix" values="0 0 0 0 0 0 0 0 0 0 0 0 0 0 0 0 0 0 0.25 0"/>
<feBlend mode="overlay" in2="BackgroundImageFix" result="effect1_dropShadow"/>
<feBlend mode="normal" in="SourceGraphic" in2="effect1_dropShadow" result="shape"/>
</filter>
<filter id="filter1_d" x="8.25" y="-1.96907" width="15.75" height="23.9381" filterUnits="userSpaceOnUse" color-interpolation-filters="sRGB">
<feFlood flood-opacity="0" result="BackgroundImageFix"/>
<feColorMatrix in="SourceAlpha" type="matrix" values="0 0 0 0 0 0 0 0 0 0 0 0 0 0 0 0 0 0 127 0"/>
<feOffset/>
<feGaussianBlur stdDeviation="3"/>
<feColorMatrix type="matrix" values="0 0 0 0 0 0 0 0 0 0 0 0 0 0 0 0 0 0 0.25 0"/>
<feBlend mode="overlay" in2="BackgroundImageFix" result="effect1_dropShadow"/>
<feBlend mode="normal" in="SourceGraphic" in2="effect1_dropShadow" result="shape"/>
</filter>
<linearGradient id="paint0_linear" x1="11.9927" y1="4.03093" x2="11.9927" y2="15.9691" gradientUnits="userSpaceOnUse">
<stop stop-color="white"/>
<stop offset="1" stop-color="white" stop-opacity="0"/>
</linearGradient>
</defs>
</svg>
